<mxfile host="app.diagrams.net" agent="Mozilla/5.0 (Macintosh; Intel Mac OS X 10_15_7) AppleWebKit/537.36 (KHTML, like Gecko) Chrome/128.0.0.0 Safari/537.36" version="24.7.14">
  <diagram name="Page-1" id="0x5G_Dg7lYu9P7C7DuZz">
    <mxGraphModel dx="812" dy="456" grid="1" gridSize="10" guides="1" tooltips="1" connect="1" arrows="1" fold="1" page="1" pageScale="1" pageWidth="850" pageHeight="1100" math="0" shadow="0">
      <root>
        <mxCell id="0" />
        <mxCell id="1" parent="0" />
        <mxCell id="OoPwqm71YYaU8E5qXUv5-4" value="" style="endArrow=oval;html=1;rounded=0;startArrow=oval;startFill=1;endFill=1;" edge="1" parent="1">
          <mxGeometry width="50" height="50" relative="1" as="geometry">
            <mxPoint x="140" y="240" as="sourcePoint" />
            <mxPoint x="300" y="240" as="targetPoint" />
          </mxGeometry>
        </mxCell>
        <mxCell id="OoPwqm71YYaU8E5qXUv5-7" value="&lt;font style=&quot;font-size: 8px;&quot;&gt;User Coords&lt;/font&gt;" style="edgeLabel;html=1;align=center;verticalAlign=middle;resizable=0;points=[];" vertex="1" connectable="0" parent="OoPwqm71YYaU8E5qXUv5-4">
          <mxGeometry x="-0.7045" relative="1" as="geometry">
            <mxPoint x="-22" y="10" as="offset" />
          </mxGeometry>
        </mxCell>
        <mxCell id="OoPwqm71YYaU8E5qXUv5-8" value="&lt;font style=&quot;font-size: 8px;&quot;&gt;Place Coords&lt;/font&gt;" style="edgeLabel;html=1;align=center;verticalAlign=middle;resizable=0;points=[];" vertex="1" connectable="0" parent="OoPwqm71YYaU8E5qXUv5-4">
          <mxGeometry x="0.2683" y="1" relative="1" as="geometry">
            <mxPoint x="59" y="11" as="offset" />
          </mxGeometry>
        </mxCell>
        <mxCell id="OoPwqm71YYaU8E5qXUv5-9" value="100KM" style="edgeLabel;html=1;align=center;verticalAlign=middle;resizable=0;points=[];" vertex="1" connectable="0" parent="OoPwqm71YYaU8E5qXUv5-4">
          <mxGeometry x="0.0672" relative="1" as="geometry">
            <mxPoint x="-6" y="-12" as="offset" />
          </mxGeometry>
        </mxCell>
        <mxCell id="OoPwqm71YYaU8E5qXUv5-5" value="" style="endArrow=oval;html=1;rounded=0;startArrow=oval;startFill=1;endFill=1;" edge="1" parent="1">
          <mxGeometry width="50" height="50" relative="1" as="geometry">
            <mxPoint x="380" y="240" as="sourcePoint" />
            <mxPoint x="460" y="240" as="targetPoint" />
          </mxGeometry>
        </mxCell>
        <mxCell id="OoPwqm71YYaU8E5qXUv5-13" value="10M" style="edgeLabel;html=1;align=center;verticalAlign=middle;resizable=0;points=[];" vertex="1" connectable="0" parent="OoPwqm71YYaU8E5qXUv5-5">
          <mxGeometry x="-0.0632" y="2" relative="1" as="geometry">
            <mxPoint x="2" y="-8" as="offset" />
          </mxGeometry>
        </mxCell>
        <mxCell id="OoPwqm71YYaU8E5qXUv5-14" value="&lt;font style=&quot;font-size: 8px;&quot;&gt;User Coords&lt;/font&gt;" style="edgeLabel;html=1;align=center;verticalAlign=middle;resizable=0;points=[];" vertex="1" connectable="0" parent="OoPwqm71YYaU8E5qXUv5-5">
          <mxGeometry x="-0.5237" y="2" relative="1" as="geometry">
            <mxPoint x="-17" y="11" as="offset" />
          </mxGeometry>
        </mxCell>
        <mxCell id="OoPwqm71YYaU8E5qXUv5-15" value="&lt;font style=&quot;font-size: 8px;&quot;&gt;New Place Coords&lt;/font&gt;&lt;div&gt;&lt;font style=&quot;font-size: 8px;&quot;&gt;(Near Coords)&lt;/font&gt;&lt;/div&gt;" style="edgeLabel;html=1;align=center;verticalAlign=middle;resizable=0;points=[];" vertex="1" connectable="0" parent="OoPwqm71YYaU8E5qXUv5-5">
          <mxGeometry x="0.6067" y="-1" relative="1" as="geometry">
            <mxPoint x="16" y="19" as="offset" />
          </mxGeometry>
        </mxCell>
        <mxCell id="OoPwqm71YYaU8E5qXUv5-10" value="" style="endArrow=classic;html=1;rounded=0;dashed=1;dashPattern=8 8;" edge="1" parent="1">
          <mxGeometry width="50" height="50" relative="1" as="geometry">
            <mxPoint x="300" y="200" as="sourcePoint" />
            <mxPoint x="380" y="200" as="targetPoint" />
          </mxGeometry>
        </mxCell>
        <mxCell id="OoPwqm71YYaU8E5qXUv5-12" value="moveCloser(userCoords, placeCoords, distance)" style="edgeLabel;html=1;align=center;verticalAlign=middle;resizable=0;points=[];" vertex="1" connectable="0" parent="OoPwqm71YYaU8E5qXUv5-10">
          <mxGeometry x="-0.0761" y="-1" relative="1" as="geometry">
            <mxPoint x="3" y="-21" as="offset" />
          </mxGeometry>
        </mxCell>
        <mxCell id="OoPwqm71YYaU8E5qXUv5-16" value="Place 1" style="text;html=1;align=center;verticalAlign=middle;resizable=0;points=[];autosize=1;strokeColor=none;fillColor=none;" vertex="1" parent="1">
          <mxGeometry x="40" y="220" width="60" height="30" as="geometry" />
        </mxCell>
        <mxCell id="OoPwqm71YYaU8E5qXUv5-17" value="" style="endArrow=oval;html=1;rounded=0;startArrow=oval;startFill=1;endFill=1;" edge="1" parent="1">
          <mxGeometry width="50" height="50" relative="1" as="geometry">
            <mxPoint x="140" y="300" as="sourcePoint" />
            <mxPoint x="300" y="300" as="targetPoint" />
          </mxGeometry>
        </mxCell>
        <mxCell id="OoPwqm71YYaU8E5qXUv5-18" value="&lt;font style=&quot;font-size: 8px;&quot;&gt;User Coords&lt;/font&gt;" style="edgeLabel;html=1;align=center;verticalAlign=middle;resizable=0;points=[];" vertex="1" connectable="0" parent="OoPwqm71YYaU8E5qXUv5-17">
          <mxGeometry x="-0.7045" relative="1" as="geometry">
            <mxPoint x="-22" y="10" as="offset" />
          </mxGeometry>
        </mxCell>
        <mxCell id="OoPwqm71YYaU8E5qXUv5-19" value="&lt;font style=&quot;font-size: 8px;&quot;&gt;Place Coords&lt;/font&gt;" style="edgeLabel;html=1;align=center;verticalAlign=middle;resizable=0;points=[];" vertex="1" connectable="0" parent="OoPwqm71YYaU8E5qXUv5-17">
          <mxGeometry x="0.2683" y="1" relative="1" as="geometry">
            <mxPoint x="59" y="11" as="offset" />
          </mxGeometry>
        </mxCell>
        <mxCell id="OoPwqm71YYaU8E5qXUv5-20" value="103KM" style="edgeLabel;html=1;align=center;verticalAlign=middle;resizable=0;points=[];" vertex="1" connectable="0" parent="OoPwqm71YYaU8E5qXUv5-17">
          <mxGeometry x="0.0672" relative="1" as="geometry">
            <mxPoint x="-6" y="-12" as="offset" />
          </mxGeometry>
        </mxCell>
        <mxCell id="OoPwqm71YYaU8E5qXUv5-21" value="" style="endArrow=oval;html=1;rounded=0;startArrow=oval;startFill=1;endFill=1;" edge="1" parent="1">
          <mxGeometry width="50" height="50" relative="1" as="geometry">
            <mxPoint x="380" y="300" as="sourcePoint" />
            <mxPoint x="490" y="300" as="targetPoint" />
          </mxGeometry>
        </mxCell>
        <mxCell id="OoPwqm71YYaU8E5qXUv5-22" value="15M" style="edgeLabel;html=1;align=center;verticalAlign=middle;resizable=0;points=[];" vertex="1" connectable="0" parent="OoPwqm71YYaU8E5qXUv5-21">
          <mxGeometry x="-0.0632" y="2" relative="1" as="geometry">
            <mxPoint x="2" y="-8" as="offset" />
          </mxGeometry>
        </mxCell>
        <mxCell id="OoPwqm71YYaU8E5qXUv5-23" value="&lt;font style=&quot;font-size: 8px;&quot;&gt;User Coords&lt;/font&gt;" style="edgeLabel;html=1;align=center;verticalAlign=middle;resizable=0;points=[];" vertex="1" connectable="0" parent="OoPwqm71YYaU8E5qXUv5-21">
          <mxGeometry x="-0.5237" y="2" relative="1" as="geometry">
            <mxPoint x="-26" y="11" as="offset" />
          </mxGeometry>
        </mxCell>
        <mxCell id="OoPwqm71YYaU8E5qXUv5-24" value="&lt;font style=&quot;font-size: 8px;&quot;&gt;New Place Coords&lt;/font&gt;&lt;div&gt;&lt;font style=&quot;font-size: 8px;&quot;&gt;(Near Coords)&lt;/font&gt;&lt;/div&gt;" style="edgeLabel;html=1;align=center;verticalAlign=middle;resizable=0;points=[];" vertex="1" connectable="0" parent="OoPwqm71YYaU8E5qXUv5-21">
          <mxGeometry x="0.6067" y="-1" relative="1" as="geometry">
            <mxPoint x="22" y="17" as="offset" />
          </mxGeometry>
        </mxCell>
        <mxCell id="OoPwqm71YYaU8E5qXUv5-25" value="Place 2" style="text;html=1;align=center;verticalAlign=middle;resizable=0;points=[];autosize=1;strokeColor=none;fillColor=none;" vertex="1" parent="1">
          <mxGeometry x="40" y="280" width="60" height="30" as="geometry" />
        </mxCell>
        <mxCell id="OoPwqm71YYaU8E5qXUv5-26" value="" style="endArrow=oval;html=1;rounded=0;startArrow=oval;startFill=1;endFill=1;" edge="1" parent="1">
          <mxGeometry width="50" height="50" relative="1" as="geometry">
            <mxPoint x="140" y="358" as="sourcePoint" />
            <mxPoint x="300" y="358" as="targetPoint" />
          </mxGeometry>
        </mxCell>
        <mxCell id="OoPwqm71YYaU8E5qXUv5-27" value="&lt;font style=&quot;font-size: 8px;&quot;&gt;User Coords&lt;/font&gt;" style="edgeLabel;html=1;align=center;verticalAlign=middle;resizable=0;points=[];" vertex="1" connectable="0" parent="OoPwqm71YYaU8E5qXUv5-26">
          <mxGeometry x="-0.7045" relative="1" as="geometry">
            <mxPoint x="-22" y="10" as="offset" />
          </mxGeometry>
        </mxCell>
        <mxCell id="OoPwqm71YYaU8E5qXUv5-28" value="&lt;font style=&quot;font-size: 8px;&quot;&gt;Place Coords&lt;/font&gt;" style="edgeLabel;html=1;align=center;verticalAlign=middle;resizable=0;points=[];" vertex="1" connectable="0" parent="OoPwqm71YYaU8E5qXUv5-26">
          <mxGeometry x="0.2683" y="1" relative="1" as="geometry">
            <mxPoint x="59" y="11" as="offset" />
          </mxGeometry>
        </mxCell>
        <mxCell id="OoPwqm71YYaU8E5qXUv5-29" value="250KM" style="edgeLabel;html=1;align=center;verticalAlign=middle;resizable=0;points=[];" vertex="1" connectable="0" parent="OoPwqm71YYaU8E5qXUv5-26">
          <mxGeometry x="0.0672" relative="1" as="geometry">
            <mxPoint x="-6" y="-12" as="offset" />
          </mxGeometry>
        </mxCell>
        <mxCell id="OoPwqm71YYaU8E5qXUv5-30" value="" style="endArrow=oval;html=1;rounded=0;startArrow=oval;startFill=1;endFill=1;" edge="1" parent="1">
          <mxGeometry width="50" height="50" relative="1" as="geometry">
            <mxPoint x="380" y="358" as="sourcePoint" />
            <mxPoint x="520" y="358" as="targetPoint" />
          </mxGeometry>
        </mxCell>
        <mxCell id="OoPwqm71YYaU8E5qXUv5-31" value="20M" style="edgeLabel;html=1;align=center;verticalAlign=middle;resizable=0;points=[];" vertex="1" connectable="0" parent="OoPwqm71YYaU8E5qXUv5-30">
          <mxGeometry x="-0.0632" y="2" relative="1" as="geometry">
            <mxPoint x="2" y="-8" as="offset" />
          </mxGeometry>
        </mxCell>
        <mxCell id="OoPwqm71YYaU8E5qXUv5-32" value="&lt;font style=&quot;font-size: 8px;&quot;&gt;User Coords&lt;/font&gt;" style="edgeLabel;html=1;align=center;verticalAlign=middle;resizable=0;points=[];" vertex="1" connectable="0" parent="OoPwqm71YYaU8E5qXUv5-30">
          <mxGeometry x="-0.5237" y="2" relative="1" as="geometry">
            <mxPoint x="-33" y="11" as="offset" />
          </mxGeometry>
        </mxCell>
        <mxCell id="OoPwqm71YYaU8E5qXUv5-33" value="&lt;font style=&quot;font-size: 8px;&quot;&gt;New Place Coords&lt;/font&gt;&lt;div&gt;&lt;font style=&quot;font-size: 8px;&quot;&gt;(Near Coords)&lt;/font&gt;&lt;/div&gt;" style="edgeLabel;html=1;align=center;verticalAlign=middle;resizable=0;points=[];" vertex="1" connectable="0" parent="OoPwqm71YYaU8E5qXUv5-30">
          <mxGeometry x="0.6067" y="-1" relative="1" as="geometry">
            <mxPoint x="28" y="18" as="offset" />
          </mxGeometry>
        </mxCell>
        <mxCell id="OoPwqm71YYaU8E5qXUv5-34" value="Place 3" style="text;html=1;align=center;verticalAlign=middle;resizable=0;points=[];autosize=1;strokeColor=none;fillColor=none;" vertex="1" parent="1">
          <mxGeometry x="40" y="346" width="60" height="30" as="geometry" />
        </mxCell>
      </root>
    </mxGraphModel>
  </diagram>
</mxfile>
